<?xml version="1.0" encoding="UTF-8"?>
<svg id="Layer_1" data-name="Layer 1" xmlns="http://www.w3.org/2000/svg" viewBox="0 0 1423.25 885.39">
  <defs>
    <style>
      .cls-1 {
        fill: #fff;
      }

      .cls-2 {
        fill: #74b71c;
      }
    </style>
  </defs>
  <path class="cls-2" d="M1134.66,0h-421.02c-27.9,0-53.67,14.88-67.62,39.04l-210.51,364.61c-13.95,24.16-13.95,53.92,0,78.08l210.51,364.61c13.95,24.16,39.73,39.04,67.62,39.04h421.02c27.9,0,53.67-14.88,67.62-39.04l210.51-364.61c13.95-24.16,13.95-53.92,0-78.08l-210.51-364.61c-13.95-24.16-39.73-39.04-67.62-39.04Z"/>
  <g>
    <path class="cls-1" d="M975.34,183.08l-154.2,495.67c-5.38,17.31,1.85,36.61,16.16,43.12h0c14.31,6.51,30.28-2.24,35.66-19.55l154.2-495.67c5.38-17.31-1.85-36.61-16.16-43.12h0c-14.31-6.51-30.28,2.24-35.66,19.55Z"/>
    <g>
      <path class="cls-1" d="M1036.9,566.7c-10.62,12.8-10.62,33.62,0,46.42,5.29,6.44,12.24,9.62,19.19,9.62,6.95,0,13.9-3.18,19.19-9.62l120.13-145.28c5.12-6.19,7.75-14.2,7.93-22.32.06-.82.03-1.65,0-2.47-.18-8.15-2.81-16.13-7.93-22.35l-120.13-145.28c-5.29-6.44-12.24-9.62-19.19-9.62-6.95,0-13.9,3.18-19.19,9.62-10.62,12.84-10.62,33.62,0,46.42l101.23,122.42-101.23,122.42Z"/>
      <rect class="cls-1" x="1229.3" y="262.65" width="54.54" height="356.02" rx="27.27" ry="27.27"/>
    </g>
    <g>
      <path class="cls-1" d="M811.39,566.7c10.62,12.8,10.62,33.62,0,46.42-5.29,6.44-12.24,9.62-19.19,9.62s-13.9-3.18-19.19-9.62l-120.13-145.28c-5.12-6.19-7.75-14.2-7.93-22.32-.06-.82-.03-1.65,0-2.47.18-8.15,2.81-16.13,7.93-22.35l120.13-145.28c5.29-6.44,12.24-9.62,19.19-9.62s13.9,3.18,19.19,9.62c10.62,12.84,10.62,33.62,0,46.42l-101.23,122.42,101.23,122.42Z"/>
      <rect class="cls-1" x="564.46" y="262.65" width="54.54" height="356.02" rx="27.27" ry="27.27"/>
    </g>
  </g>
</svg>